<svg width="200" height="140" viewBox="0 0 200 140" fill="none" xmlns="http://www.w3.org/2000/svg">
<path fill-rule="evenodd" clip-rule="evenodd" d="M143.279 0C136.147 0 129.354 3.0459 124.611 8.3713L118.668 15.0431C108.725 26.2048 91.2747 26.2048 81.3322 15.0431L75.3892 8.37131C70.6455 3.04591 63.8532 0 56.7214 0H25C11.1929 0 0 11.1929 0 25L0 115C0 128.807 11.1929 140 25 140H175C188.807 140 200 128.807 200 115V25C200 11.1929 188.807 0 175 0L143.279 0Z" fill="#0232FF" fill-opacity="0.6"/>
<g clip-path="url(#clip0_64_45)">
<path d="M104.674 73.2535C104.674 74.05 104.028 74.6957 103.231 74.6957H96.6899C95.8928 74.6957 95.2467 74.05 95.2467 73.2535V66.7166C95.2467 65.9201 95.8928 65.2744 96.6899 65.2744H103.231C104.028 65.2744 104.674 65.9201 104.674 66.7166V73.2535V73.2535ZM110.562 76.6359V63.3343C110.562 61.1561 108.795 59.3911 106.616 59.3911H93.3052C91.1256 59.3911 89.3594 61.1569 89.3594 63.3343V76.6359C89.3594 78.8141 91.1264 80.5791 93.3052 80.5791H106.616C108.795 80.5791 110.562 78.8141 110.562 76.6359Z" fill="white"/>
<path d="M132.178 73.801C134.286 73.801 135.996 72.0926 135.996 69.9851C135.996 67.8776 134.286 66.1691 132.178 66.1691H126.074V62.1379H132.178C134.286 62.1379 135.996 60.4295 135.996 58.322C135.996 56.2145 134.286 54.506 132.178 54.506H126.074V54.0944C126.074 48.5198 121.551 44 115.972 44H84.171C78.5918 44 74.069 48.5198 74.069 54.0952V54.5068H67.8546C65.7457 54.5068 64.0361 56.2153 64.0361 58.3228C64.0361 60.4303 65.7457 62.1387 67.8546 62.1387H74.069V66.1699H67.8546C65.7457 66.1699 64.0361 67.8784 64.0361 69.9859C64.0361 72.0934 65.7457 73.8018 67.8546 73.8018H74.069V77.833H67.8546C65.7457 77.833 64.0361 79.5414 64.0361 81.6489C64.0361 83.7564 65.7457 85.4649 67.8546 85.4649H74.069V85.8765C74.069 91.452 78.5918 95.9717 84.171 95.9717H115.972C121.551 95.9717 126.074 91.452 126.074 85.8765V85.4649H132.178C134.286 85.4649 135.996 83.7564 135.996 81.6489C135.996 79.5414 134.286 77.833 132.178 77.833H126.074V73.8018H132.178V73.801ZM118.112 83.6865C118.112 86.076 116.173 88.0131 113.782 88.0131H86.3616C83.9705 88.0131 82.0322 86.076 82.0322 83.6865V56.2844C82.0322 53.8949 83.9705 51.9579 86.3616 51.9579H113.782C116.173 51.9579 118.112 53.8949 118.112 56.2844V83.6865Z" fill="white"/>
</g>
<defs>
<clipPath id="clip0_64_45">
<rect width="72" height="52" fill="white" transform="translate(64 44)"/>
</clipPath>
</defs>
</svg>
