<svg width="200" height="200" viewBox="0 0 200 200" fill="none" xmlns="http://www.w3.org/2000/svg">
<circle cx="100" cy="100" r="100" fill="#FF0700" fill-opacity="0.6"/>
<g clip-path="url(#clip0_64_52)">
<path d="M98.6565 63.0378C98.519 63.0504 98.1002 63.0944 97.719 63.1322C94.269 63.472 90.3002 64.6929 86.7815 66.4927C80.8252 69.5448 76.8752 73.6542 76.0002 77.7196C75.7815 78.7202 75.7815 79.1796 76.0002 80.9039C76.1815 82.3639 76.5377 85.3154 77.0002 89.0849C77.1065 89.9471 77.3627 92.0301 77.569 93.7104C77.7752 95.3906 77.9315 96.8129 77.919 96.8695C77.9002 96.9261 77.219 97.9582 76.4002 99.1602C75.5752 100.362 74.9127 101.369 74.919 101.394C74.9377 101.445 82.8252 112.42 82.9377 112.546C82.9627 112.577 84.1127 112.804 85.494 113.055C86.8815 113.313 88.0315 113.546 88.0627 113.571C88.0877 113.603 88.2752 114.515 88.4752 115.591L88.8377 117.561L92.3002 119.512L95.7627 121.463H100H104.238L107.7 119.512L111.163 117.561L111.531 115.56C111.731 114.465 111.9 113.559 111.906 113.546C111.913 113.54 113.063 113.32 114.469 113.062C115.869 112.81 117.038 112.571 117.063 112.546C117.175 112.42 125.063 101.445 125.081 101.394C125.088 101.369 124.425 100.362 123.6 99.1602C122.781 97.9582 122.1 96.9261 122.088 96.8695C122.069 96.8129 122.325 94.5788 122.65 91.9168C122.981 89.2486 123.363 86.1335 123.5 84.9944C123.638 83.8491 123.856 82.1122 123.975 81.1242C124.15 79.7208 124.188 79.2173 124.156 78.7957C123.825 74.3528 119.513 69.5952 112.844 66.3039C109.4 64.611 106.063 63.5916 102.531 63.151C101.819 63.0629 99.1877 62.9874 98.6565 63.0378ZM88.069 93.9998C89.0627 94.1886 90.5127 94.604 91.6877 95.0445C94.5127 96.1017 96.1752 97.2156 96.694 98.3987C96.8127 98.6756 96.8252 98.7826 96.794 99.4308C96.7565 100.306 96.6065 100.878 96.219 101.677C95.2252 103.704 92.869 105.327 89.7815 106.108C88.144 106.529 85.869 106.731 85.1565 106.523C83.8002 106.12 82.9065 104.528 82.5377 101.828C82.394 100.834 82.294 98.9903 82.3315 98.2099C82.4002 96.7814 82.7565 95.7808 83.4377 95.0948C84.3877 94.1383 86.3565 93.6726 88.069 93.9998ZM114.656 94.0879C116.638 94.5977 117.55 95.85 117.669 98.2099C117.706 98.9903 117.606 100.834 117.463 101.828C117.094 104.528 116.2 106.12 114.844 106.523C114.131 106.731 111.856 106.529 110.219 106.108C107.131 105.327 104.775 103.704 103.781 101.677C103.394 100.878 103.244 100.306 103.206 99.4308C103.169 98.6064 103.231 98.3673 103.675 97.782C104.719 96.3912 108.4 94.7173 112.063 93.9621C112.538 93.8677 114.088 93.9369 114.656 94.0879ZM101.969 108.354C103.025 110.255 103.963 111.923 104.044 112.061L104.188 112.319L103.256 113.024L102.325 113.722L101.163 113.024L100 112.319L98.8377 113.024L97.6752 113.722L96.744 113.024L95.8127 112.319L95.9565 112.061C96.0377 111.923 96.9752 110.255 98.0315 108.354C99.0877 106.46 99.9752 104.912 100 104.912C100.025 104.912 100.913 106.46 101.969 108.354Z" fill="white"/>
<path d="M65.1687 93.6159C63.2875 93.8739 61.4875 94.755 60.8937 95.6989C60.5937 96.1772 60.5375 96.4226 60.5812 97.1023C60.6437 98.1155 60.8187 98.556 61.5875 99.6258C62.35 100.689 62.575 101.432 62.5875 102.867C62.5937 104.182 62.4 104.654 61.3437 105.919C60.7062 106.68 60.3875 107.247 60.225 107.901C60.1 108.398 60 109.078 60 109.487V109.821H62.8C66.3125 109.821 68.1687 109.909 70.0937 110.173C72.625 110.513 75.375 111.293 79.0562 112.709C79.5187 112.885 79.9062 113.018 79.9187 113.011C79.9312 112.999 78.2812 110.695 76.2625 107.895L72.5812 102.804L71.9 102.433C68.975 100.847 67.8312 99.0972 66.975 94.8934C66.85 94.2956 66.7375 93.7418 66.7187 93.66C66.6875 93.5341 66.65 93.5215 66.2312 93.5278C65.9875 93.5341 65.5062 93.5719 65.1687 93.6159Z" fill="white"/>
<path d="M133.287 93.6285C133.275 93.6914 133.2 94.0501 133.125 94.434C133.05 94.8116 132.894 95.5101 132.781 95.9758C131.931 99.4056 130.8 100.973 128.1 102.433L127.419 102.804L123.737 107.895C121.719 110.695 120.069 112.999 120.081 113.011C120.094 113.018 120.481 112.885 120.944 112.709C124.625 111.293 127.375 110.513 129.906 110.173C131.831 109.909 133.687 109.821 137.206 109.821H140V109.487C140 109.078 139.9 108.398 139.775 107.901C139.625 107.291 139.275 106.662 138.744 106.032C137.537 104.61 137.275 103.855 137.431 102.231C137.525 101.275 137.731 100.633 138.15 100.016C138.331 99.7517 138.606 99.3426 138.762 99.1098C138.919 98.8769 139.106 98.5308 139.181 98.342C139.437 97.6561 139.512 96.6492 139.344 96.1709C138.919 94.9563 137.056 93.918 134.762 93.6159C133.775 93.4838 133.331 93.4901 133.287 93.6285Z" fill="white"/>
<path d="M88.875 119.323C88.875 119.537 89.775 122.583 89.8625 122.671C89.9188 122.728 90.3375 123.049 90.7813 123.376L91.5938 123.986L91.6125 122.432C91.6188 121.576 91.6063 120.852 91.5813 120.827C91.55 120.802 91.025 120.494 90.4063 120.141C89.7875 119.789 89.1875 119.449 89.0813 119.38C88.9688 119.317 88.875 119.292 88.875 119.323Z" fill="white"/>
<path d="M109.75 120.047L108.406 120.821L108.387 122.407C108.375 123.672 108.387 123.98 108.45 123.942C108.493 123.917 108.918 123.603 109.387 123.244C110.168 122.652 110.25 122.57 110.312 122.331C110.356 122.18 110.55 121.457 110.756 120.714C110.962 119.978 111.125 119.355 111.112 119.33C111.1 119.304 110.487 119.625 109.75 120.047Z" fill="white"/>
<path d="M85.8313 119.732C85.55 119.927 83.7438 120.821 82.8688 121.199C79.7625 122.526 76.6688 123.351 73.7 123.634C73.1625 123.684 72.4438 123.728 72.1 123.728C70.8625 123.735 70.0813 124.024 69.3375 124.767C69.0063 125.1 68.825 125.346 68.6313 125.749C68.3813 126.258 68.1875 127.007 68.1875 127.46C68.1875 127.662 68.1938 127.662 68.7375 127.806C70.9125 128.392 72.5188 129.449 73.5188 130.978C73.9625 131.651 74.1813 132.098 74.6625 133.313C75.35 135.018 75.6313 135.459 76.2813 135.799C76.5688 135.95 76.6563 135.969 77.2813 135.962C77.825 135.962 78.0563 135.931 78.375 135.817C79.2813 135.503 80.0438 134.804 81.3438 133.105C82.4 131.714 82.9313 131.098 83.7188 130.305C85.225 128.782 87.1 127.511 89.1875 126.598L89.9438 126.265L88.6438 125.283L87.3438 124.301L86.7625 122.206C86.4438 121.054 86.1563 120.003 86.1188 119.871C86.05 119.613 86.025 119.6 85.8313 119.732Z" fill="white"/>
<path d="M113.881 119.871C113.844 120.003 113.556 121.054 113.238 122.206L112.656 124.301L111.356 125.283L110.062 126.258L110.919 126.648C113.038 127.599 114.781 128.788 116.281 130.305C117.069 131.098 117.6 131.714 118.656 133.105C119.956 134.804 120.719 135.503 121.625 135.817C121.944 135.931 122.175 135.962 122.719 135.962C123.344 135.969 123.431 135.95 123.719 135.799C124.369 135.459 124.65 135.018 125.338 133.313C125.788 132.174 126.031 131.67 126.406 131.091C127.431 129.493 128.975 128.436 131.169 127.838L131.813 127.662V127.454C131.813 127.02 131.613 126.258 131.363 125.749C131.169 125.346 131 125.107 130.663 124.767C129.919 124.024 129.138 123.735 127.9 123.728C124.106 123.722 118.631 122.187 114.694 120.022C114.306 119.808 113.981 119.638 113.969 119.638C113.956 119.638 113.913 119.745 113.881 119.871Z" fill="white"/>
<path d="M92.575 122.948L92.5938 124.502L93.9063 125.214C94.6313 125.604 95.2563 125.925 95.3 125.931C95.3625 125.931 95.375 125.597 95.3625 124.37L95.3438 122.816L93.95 122.105L92.5625 121.394L92.575 122.948Z" fill="white"/>
<path d="M106.031 122.117L104.656 122.816L104.638 124.37C104.625 125.44 104.644 125.931 104.688 125.931C104.756 125.931 107.306 124.572 107.394 124.49C107.419 124.465 107.431 123.76 107.425 122.929L107.406 121.413L106.031 122.117Z" fill="white"/>
<path d="M96.2625 124.528L96.2813 126.151H97.9063H99.5313L99.55 124.528L99.5625 122.91H97.9063H96.25L96.2625 124.528Z" fill="white"/>
<path d="M100.45 124.528L100.469 126.151H102.094H103.719L103.738 124.528L103.75 122.91H102.094H100.438L100.45 124.528Z" fill="white"/>
</g>
<defs>
<clipPath id="clip0_64_52">
<rect width="80" height="73" fill="white" transform="translate(60 63)"/>
</clipPath>
</defs>
</svg>
